<?xml version="1.0" standalone="yes"?>
<svg xmlns="http://www.w3.org/2000/svg" width="512" height="512">
<path style="fill:#010101; stroke:none;" d="M0 0L0 512L512 512L512 0L0 0z"/>
<path style="fill:#5e1c16; stroke:none;" d="M19 15L20 16L19 15z"/>
<path style="fill:#fc4c3a; stroke:none;" d="M94 29C75.1925 16.3227 57.0212 15 35 15C29.0527 15 9.72178 14.0845 16.1829 25.8912C19.0278 31.0899 26.0382 30 31 30C42.8072 30 55.5742 28.5518 67 32.0394C71.8422 33.5174 79.0729 39.5937 84 38.9784C88.5294 38.4128 92.264 32.7227 94 29z"/>
<path style="fill:#5e1c16; stroke:none;" d="M59 15L59 16L63 16L59 15M66.6667 16.3333L67.3333 16.6667L66.6667 16.3333M70.6667 17.3333L71.3333 17.6667L70.6667 17.3333M73.6667 18.3333L74.3333 18.6667L73.6667 18.3333M15 19L16 20L15 19M76 19L77 20L76 19M79 20L80 21L79 20M81 21L82 22L81 21M83 22L84 23L83 22M85 23L86 24L85 23M15 25L16 26L15 25M88 25L89 26L88 25M90 26L91 27L90 26M91 27L92 28L91 27M19 29L20 30L19 29M94 29L95 30L94 29M57 30L57 31L61 31L57 30M63 31L63 32L66 32L63 31M67.6667 32.3333L68.3333 32.6667L67.6667 32.3333M70.6667 33.3333L71.3333 33.6667L70.6667 33.3333M73 34L74 35L73 34M75 35L76 36L75 35M77 36L78 37L77 36M79 37L80 38L79 37M82 39L83 40L82 39z"/>
<path style="fill:#325385; stroke:none;" d="M105 40L106 41L105 40z"/>
<path style="fill:#b4cbfd; stroke:none;" d="M322 302L219 302C209.514 302 188.026 305.987 180.214 300.258C174.975 296.416 174.338 286.859 172.873 281C168.701 264.31 164.299 247.689 160.127 231C150.279 191.608 139.721 152.391 129.873 113C123.828 88.8181 120.122 61.9507 106 41C102.277 42.736 96.5872 46.4706 96.0216 51C95.5433 54.8304 99.6643 59.5912 101.127 63C104.389 70.5991 105.875 79.0055 107.873 87C119.388 133.058 131.558 178.952 143.127 225C147.905 244.02 152.728 263.069 157.849 282C159.463 287.969 164.418 299.023 161.504 304.907C157.968 312.047 144.702 316.624 138 320.306C114.258 333.346 81.9661 348.033 92.0394 381C93.5181 385.839 95.8197 390.197 99.1852 393.996C117 414.104 152.88 407 177 407L382 407L446 407C452.078 407 464.621 409.213 466.333 400.981C468.428 390.912 455.077 392 449 392L386 392L171 392C151.576 392 107.139 400.263 105.097 371C103.738 351.513 129.256 342.854 143 334.999C152.829 329.382 164.046 320.465 175 317.498C184.255 314.992 196.43 317 206 317L270 317C287.927 317 313.163 322.092 322 302z"/>
<path style="fill:#325385; stroke:none;" d="M107 43L108 44L107 43M108 44L109 45L108 44M109 46L110 47L109 46z"/>
<path style="fill:#5e1c16; stroke:none;" d="M110 47L111 48L110 47z"/>
<path style="fill:#325385; stroke:none;" d="M111 49L112 50L111 49M112 51L113 52L112 51M95 52L96 53L95 52M113 53L114 54L113 53M97 55L98 56L97 55M114 55L115 56L114 55M98 57L99 58L98 57z"/>
<path style="fill:#5e1c16; stroke:none;" d="M115 57L116 58L115 57z"/>
<path style="fill:#325385; stroke:none;" d="M115 58L116 59L115 58M99 59L100 60L99 59M116.333 60.6667L116.667 61.3333L116.333 60.6667M100 61L101 62L100 61M101 63L102 64L101 63M117.333 63.6667L117.667 64.3333L117.333 63.6667z"/>
<path style="fill:#5e1c16; stroke:none;" d="M101 64L102 65L101 64z"/>
<path style="fill:#325385; stroke:none;" d="M102.333 66.6667L102.667 67.3333L102.333 66.6667M118.333 67.6667L118.667 68.3333L118.333 67.6667M103.333 69.6667L103.667 70.3333L103.333 69.6667M119.333 71.6667L119.667 72.3333L119.333 71.6667M104.333 73.6667L104.667 74.3333L104.333 73.6667M120.333 75.6667L120.667 76.3333L120.333 75.6667M105.333 77.6667L105.667 78.3333L105.333 77.6667M121.333 79.6667L121.667 80.3333L121.333 79.6667M106.333 81.6667L106.667 82.3333L106.333 81.6667z"/>
<path style="fill:#5e1c16; stroke:none;" d="M122 82L123 83L122 82z"/>
<path style="fill:#325385; stroke:none;" d="M122 83L123 84L122 83M107.333 85.6667L107.667 86.3333L107.333 85.6667z"/>
<path style="fill:#5e1c16; stroke:none;" d="M123 86L124 87L123 86z"/>
<path style="fill:#325385; stroke:none;" d="M123 87L124 88L123 87M108.333 89.6667L108.667 90.3333L108.333 89.6667z"/>
<path style="fill:#5e1c16; stroke:none;" d="M124 90L125 91L124 90z"/>
<path style="fill:#325385; stroke:none;" d="M124 91L125 92L124 91M109 93L110 94L109 93z"/>
<path style="fill:#5e1c16; stroke:none;" d="M109 94L110 95L109 94z"/>
<path style="fill:#325385; stroke:none;" d="M125.333 94.6667L125.667 95.3333L125.333 94.6667M110 97L111 98L110 97z"/>
<path style="fill:#5e1c16; stroke:none;" d="M110 98L111 99L110 98z"/>
<path style="fill:#325385; stroke:none;" d="M126.333 98.6667L126.667 99.3333L126.333 98.6667M111 101L112 102L111 101z"/>
<path style="fill:#5e1c16; stroke:none;" d="M111 102L112 103L111 102z"/>
<path style="fill:#325385; stroke:none;" d="M127.333 102.667L127.667 103.333L127.333 102.667M112.333 104.667L112.667 105.333L112.333 104.667M128.333 106.667L128.667 107.333L128.333 106.667M113.333 108.667L113.667 109.333L113.333 108.667M129.333 110.667L129.667 111.333L129.333 110.667M114.333 112.667L114.667 113.333L114.333 112.667M130.333 114.667L130.667 115.333L130.333 114.667M115.333 116.667L115.667 117.333L115.333 116.667M131.333 118.667L131.667 119.333L131.333 118.667M116.333 120.667L116.667 121.333L116.333 120.667M132.333 122.667L132.667 123.333L132.333 122.667M117.333 124.667L117.667 125.333L117.333 124.667z"/>
<path style="fill:#5e1c16; stroke:none;" d="M133 125L134 126L133 125z"/>
<path style="fill:#325385; stroke:none;" d="M133 126L134 127L133 126M118.333 128.667L118.667 129.333L118.333 128.667z"/>
<path style="fill:#5e1c16; stroke:none;" d="M134 129L135 130L134 129z"/>
<path style="fill:#325385; stroke:none;" d="M134 130L135 131L134 130M119.333 132.667L119.667 133.333L119.333 132.667z"/>
<path style="fill:#5e1c16; stroke:none;" d="M135 133L136 134L135 133z"/>
<path style="fill:#325385; stroke:none;" d="M135 134L136 135L135 134M120 136L121 137L120 136z"/>
<path style="fill:#5e1c16; stroke:none;" d="M120 137L121 138L120 137z"/>
<path style="fill:#325385; stroke:none;" d="M136.333 137.667L136.667 138.333L136.333 137.667M121 140L122 141L121 140z"/>
<path style="fill:#5e1c16; stroke:none;" d="M121 141L122 142L121 141z"/>
<path style="fill:#325385; stroke:none;" d="M137.333 141.667L137.667 142.333L137.333 141.667M122 144L123 145L122 144z"/>
<path style="fill:#5e1c16; stroke:none;" d="M122 145L123 146L122 145z"/>
<path style="fill:#325385; stroke:none;" d="M138.333 145.667L138.667 146.333L138.333 145.667M123.333 147.667L123.667 148.333L123.333 147.667M139.333 149.667L139.667 150.333L139.333 149.667M124.333 151.667L124.667 152.333L124.333 151.667M140.333 153.667L140.667 154.333L140.333 153.667M125.333 155.667L125.667 156.333L125.333 155.667M141.333 157.667L141.667 158.333L141.333 157.667M126.333 159.667L126.667 160.333L126.333 159.667M142.333 161.667L142.667 162.333L142.333 161.667M127.333 163.667L127.667 164.333L127.333 163.667M143.333 165.667L143.667 166.333L143.333 165.667M128.333 167.667L128.667 168.333L128.333 167.667z"/>
<path style="fill:#5e1c16; stroke:none;" d="M144 168L145 169L144 168z"/>
<path style="fill:#325385; stroke:none;" d="M144 169L145 170L144 169M129.333 171.667L129.667 172.333L129.333 171.667z"/>
<path style="fill:#5e1c16; stroke:none;" d="M145 172L146 173L145 172z"/>
<path style="fill:#325385; stroke:none;" d="M145 173L146 174L145 173M130.333 175.667L130.667 176.333L130.333 175.667z"/>
<path style="fill:#5e1c16; stroke:none;" d="M146 176L147 177L146 176z"/>
<path style="fill:#325385; stroke:none;" d="M146 177L147 178L146 177M131.333 179.667L131.667 180.333L131.333 179.667M147.333 180.667L147.667 181.333L147.333 180.667M132 183L133 184L132 183z"/>
<path style="fill:#5e1c16; stroke:none;" d="M132 184L133 185L132 184z"/>
<path style="fill:#325385; stroke:none;" d="M148.333 184.667L148.667 185.333L148.333 184.667M133 187L134 188L133 187z"/>
<path style="fill:#5e1c16; stroke:none;" d="M133 188L134 189L133 188z"/>
<path style="fill:#325385; stroke:none;" d="M149.333 188.667L149.667 189.333L149.333 188.667M134.333 190.667L134.667 191.333L134.333 190.667M150.333 192.667L150.667 193.333L150.333 192.667M135.333 194.667L135.667 195.333L135.333 194.667M151.333 196.667L151.667 197.333L151.333 196.667M136.333 198.667L136.667 199.333L136.333 198.667M152.333 200.667L152.667 201.333L152.333 200.667M137.333 202.667L137.667 203.333L137.333 202.667M153.333 204.667L153.667 205.333L153.333 204.667M138.333 206.667L138.667 207.333L138.333 206.667M154.333 208.667L154.667 209.333L154.333 208.667M139.333 210.667L139.667 211.333L139.333 210.667z"/>
<path style="fill:#5e1c16; stroke:none;" d="M155 211L156 212L155 211z"/>
<path style="fill:#325385; stroke:none;" d="M155 212L156 213L155 212M140.333 214.667L140.667 215.333L140.333 214.667z"/>
<path style="fill:#5e1c16; stroke:none;" d="M156 215L157 216L156 215z"/>
<path style="fill:#325385; stroke:none;" d="M156 216L157 217L156 216M141.333 218.667L141.667 219.333L141.333 218.667z"/>
<path style="fill:#5e1c16; stroke:none;" d="M157 219L158 220L157 219z"/>
<path style="fill:#325385; stroke:none;" d="M157 220L158 221L157 220M142.333 222.667L142.667 223.333L142.333 222.667M158.333 223.667L158.667 224.333L158.333 223.667M143 226L144 227L143 226z"/>
<path style="fill:#5e1c16; stroke:none;" d="M143 227L144 228L143 227z"/>
<path style="fill:#325385; stroke:none;" d="M159.333 227.667L159.667 228.333L159.333 227.667M144 230L145 231L144 230z"/>
<path style="fill:#5e1c16; stroke:none;" d="M144 231L145 232L144 231z"/>
<path style="fill:#325385; stroke:none;" d="M160.333 231.667L160.667 232.333L160.333 231.667M145.333 233.667L145.667 234.333L145.333 233.667M161.333 235.667L161.667 236.333L161.333 235.667M146.333 237.667L146.667 238.333L146.333 237.667M162.333 239.667L162.667 240.333L162.333 239.667M147.333 241.667L147.667 242.333L147.333 241.667M163.333 243.667L163.667 244.333L163.333 243.667M148.333 245.667L148.667 246.333L148.333 245.667M164.333 247.667L164.667 248.333L164.333 247.667M149.333 249.667L149.667 250.333L149.333 249.667M165.333 251.667L165.667 252.333L165.333 251.667M150.333 253.667L150.667 254.333L150.333 253.667M166 255L167 256L166 255M151.333 257.667L151.667 258.333L151.333 257.667z"/>
<path style="fill:#5e1c16; stroke:none;" d="M167 258L168 259L167 258z"/>
<path style="fill:#325385; stroke:none;" d="M167 259L168 260L167 259M152.333 261.667L152.667 262.333L152.333 261.667z"/>
<path style="fill:#5e1c16; stroke:none;" d="M168 262L169 263L168 262z"/>
<path style="fill:#325385; stroke:none;" d="M168 263L169 264L168 263M153.333 265.667L153.667 266.333L153.333 265.667M169.333 266.667L169.667 267.333L169.333 266.667M154 269L155 270L154 269z"/>
<path style="fill:#5e1c16; stroke:none;" d="M154 270L155 271L154 270z"/>
<path style="fill:#325385; stroke:none;" d="M170.333 270.667L170.667 271.333L170.333 270.667M155 273L156 274L155 273z"/>
<path style="fill:#5e1c16; stroke:none;" d="M155 274L156 275L155 274z"/>
<path style="fill:#325385; stroke:none;" d="M171.333 274.667L171.667 275.333L171.333 274.667M156 277L157 278L156 277M172.333 278.667L172.667 279.333L172.333 278.667M157.333 280.667L157.667 281.333L157.333 280.667M173.333 282.667L173.667 283.333L173.333 282.667M158.333 284.667L158.667 285.333L158.333 284.667M174.333 286.667L174.667 287.333L174.333 286.667M159.333 288.667L159.667 289.333L159.333 288.667M175.333 290.667L175.667 291.333L175.333 290.667M160.333 292.667L160.667 293.333L160.333 292.667M176.333 294.667L176.667 295.333L176.333 294.667M161.333 296.667L161.667 297.333L161.333 296.667M177 297L178 298L177 297M178 299L179 300L178 299M162 300L162 304L163 304L162 300M179 300L180 301L179 300M181 301L182 302L181 301z"/>
<path style="fill:#5e1c16; stroke:none;" d="M182 301L183 302L182 301z"/>
<path style="fill:#325385; stroke:none;" d="M321 303L322 304L321 303z"/>
<path style="fill:#5e1c16; stroke:none;" d="M161 305L162 306L161 305z"/>
<path style="fill:#325385; stroke:none;" d="M320 305L321 306L320 305M160 307L161 308L160 307M319 307L320 308L319 307z"/>
<path style="fill:#5e1c16; stroke:none;" d="M158 308L159 309L158 308z"/>
<path style="fill:#325385; stroke:none;" d="M318 308L319 309L318 308M157 309L158 310L157 309M317 309L318 310L317 309M155 310L156 311L155 310M316 310L317 311L316 310M153 311L154 312L153 311M315 311L316 312L315 311z"/>
<path style="fill:#5e1c16; stroke:none;" d="M151 312L152 313L151 312z"/>
<path style="fill:#325385; stroke:none;" d="M314 312L315 313L314 312M150 313L151 314L150 313M312 313L313 314L312 313M148 314L149 315L148 314M311 314L312 315L311 314M146 315L147 316L146 315M308 315L309 316L308 315z"/>
<path style="fill:#5e1c16; stroke:none;" d="M309 315L310 316L309 315z"/>
<path style="fill:#325385; stroke:none;" d="M144 316L145 317L144 316M304.667 316.333L305.333 316.667L304.667 316.333z"/>
<path style="fill:#5e1c16; stroke:none;" d="M306 316L307 317L306 316z"/>
<path style="fill:#325385; stroke:none;" d="M143 317L144 318L143 317M173.667 317.333L174.333 317.667L173.667 317.333M141 318L142 319L141 318M139 319L140 320L139 319M170 319L171 320L170 319M137 320L138 321L137 320M168 320L169 321L168 320M166 321L167 322L166 321M134 322L135 323L134 322M132 323L133 324L132 323z"/>
<path style="fill:#5e1c16; stroke:none;" d="M163 323L164 324L163 323z"/>
<path style="fill:#325385; stroke:none;" d="M130 324L131 325L130 324M161 324L162 325L161 324z"/>
<path style="fill:#5e1c16; stroke:none;" d="M128 325L129 326L128 325z"/>
<path style="fill:#325385; stroke:none;" d="M159 325L160 326L159 325M127 326L128 327L127 326M157 326L158 327L157 326M125 327L126 328L125 327z"/>
<path style="fill:#5e1c16; stroke:none;" d="M156 327L157 328L156 327z"/>
<path style="fill:#325385; stroke:none;" d="M123 328L124 329L123 328M154 328L155 329L154 328z"/>
<path style="fill:#5e1c16; stroke:none;" d="M121 329L122 330L121 329z"/>
<path style="fill:#325385; stroke:none;" d="M152 329L153 330L152 329M120 330L121 331L120 330M150 330L151 331L150 330M118 331L119 332L118 331z"/>
<path style="fill:#5e1c16; stroke:none;" d="M149 331L150 332L149 331z"/>
<path style="fill:#325385; stroke:none;" d="M116 332L117 333L116 332M147 332L148 333L147 332z"/>
<path style="fill:#5e1c16; stroke:none;" d="M114 333L115 334L114 333z"/>
<path style="fill:#325385; stroke:none;" d="M145 333L146 334L145 333M113 334L114 335L113 334M143 334L144 335L143 334M111 335L112 336L111 335M109 336L110 337L109 336M140 336L141 337L140 336z"/>
<path style="fill:#5e1c16; stroke:none;" d="M107 337L108 338L107 337z"/>
<path style="fill:#325385; stroke:none;" d="M138 337L139 338L138 337M106 338L107 339L106 338M136 338L137 339L136 338M134 339L135 340L134 339M103 340L104 341L103 340M133 340L134 341L133 340M102 341L103 342L102 341M131 341L132 342L131 341M101 342L102 343L101 342M129 342L130 343L129 342M100 343L101 344L100 343M127 343L128 344L127 343M99 344L100 345L99 344z"/>
<path style="fill:#5e1c16; stroke:none;" d="M126 344L127 345L126 344z"/>
<path style="fill:#325385; stroke:none;" d="M98 345L99 346L98 345M124 345L125 346L124 345M122 346L123 347L122 346M120 347L121 348L120 347M96 348L97 349L96 348z"/>
<path style="fill:#5e1c16; stroke:none;" d="M119 348L120 349L119 348M95 349L96 350L95 349z"/>
<path style="fill:#325385; stroke:none;" d="M117 349L118 350L117 349M115 350L116 351L115 350M94 351L95 352L94 351z"/>
<path style="fill:#5e1c16; stroke:none;" d="M114 351L115 352L114 351z"/>
<path style="fill:#325385; stroke:none;" d="M93 353L94 354L93 353M92.3333 355.667L92.6667 356.333L92.3333 355.667z"/>
<path style="fill:#5e1c16; stroke:none;" d="M109 356L110 357L109 356z"/>
<path style="fill:#325385; stroke:none;" d="M108 357L109 358L108 357M91.3333 358.667L91.6667 359.333L91.3333 358.667M107 359L108 360L107 359M106 361L107 362L106 361M90 362L90 365L91 365L90 362M105.333 364.667L105.667 365.333L105.333 364.667z"/>
<path style="fill:#5e1c16; stroke:none;" d="M105 366L106 367L105 366M105 372L106 373L105 372z"/>
<path style="fill:#325385; stroke:none;" d="M105.333 373.667L105.667 374.333L105.333 373.667M90 374L90 377L91 377L90 374M106 377L107 378L106 377M91.3333 379.667L91.6667 380.333L91.3333 379.667M107 379L108 380L107 379M108 381L109 382L108 381M92.3333 382.667L92.6667 383.333L92.3333 382.667z"/>
<path style="fill:#5e1c16; stroke:none;" d="M109 382L110 383L109 382z"/>
<path style="fill:#325385; stroke:none;" d="M93 385L94 386L93 385M94 387L95 388L94 387z"/>
<path style="fill:#5e1c16; stroke:none;" d="M114 387L115 388L114 387z"/>
<path style="fill:#325385; stroke:none;" d="M115 388L116 389L115 388z"/>
<path style="fill:#5e1c16; stroke:none;" d="M95 389L96 390L95 389z"/>
<path style="fill:#325385; stroke:none;" d="M117 389L118 390L117 389M96 390L97 391L96 390M119 390L120 391L119 390M122.667 391.333L123.333 391.667L122.667 391.333z"/>
<path style="fill:#5e1c16; stroke:none;" d="M124 391L125 392L124 391z"/>
<path style="fill:#325385; stroke:none;" d="M461.667 392.333L462.333 392.667L461.667 392.333M98 393L99 394L98 393M99 394L100 395L99 394M100 395L101 396L100 395M101 396L102 397L101 396M466.333 396.667L466.667 397.333L466.333 396.667M102 397L103 398L102 397M103 398L104 399L103 398M106 400L107 401L106 400z"/>
<path style="fill:#5e1c16; stroke:none;" d="M107 401L108 402L107 401z"/>
<path style="fill:#325385; stroke:none;" d="M466.333 401.667L466.667 402.333L466.333 401.667M109 402L110 403L109 402M111 403L112 404L111 403M113.667 404.333L114.333 404.667L113.667 404.333M116.667 405.333L117.333 405.667L116.667 405.333M120 406L120 407L123 407L120 406M461.667 406.333L462.333 406.667L461.667 406.333M168 452.468C139.925 457.764 147.95 501.349 176 496.674C205.352 491.782 196.935 447.009 168 452.468M425 452.468C396.925 457.764 404.95 501.349 433 496.674C462.352 491.782 453.935 447.009 425 452.468z"/>
<path style="fill:#010101; stroke:none;" d="M170.044 467.758C161.356 471.009 166.309 484.478 174.956 481.242C183.644 477.991 178.691 464.522 170.044 467.758M427.044 467.758C418.356 471.009 423.309 484.478 431.956 481.242C440.644 477.991 435.691 464.522 427.044 467.758z"/>
</svg>
